<svg width="512" height="512" viewBox="0 0 512 512" fill="none" xmlns="http://www.w3.org/2000/svg" role="img" aria-label="Document logo">
  <defs>
    <linearGradient id="paper" x1="116" y1="76" x2="396" y2="436" gradientUnits="userSpaceOnUse">
      <stop offset="0" stop-color="#3561d8"/>
      <stop offset="1" stop-color="#2a53c4"/>
    </linearGradient>
    <filter id="lift" x="-20%" y="-20%" width="140%" height="140%">
      <feDropShadow dx="0" dy="6" stdDeviation="10" flood-color="#181818" flood-opacity="0.18"/>
    </filter>
  </defs>
  <g filter="url(#lift)">
    <path d="M 138 76
             L 332 76
             L 396 140
             L 396 414
             A 22 22 0 0 1 374 436
             L 138 436
             A 22 22 0 0 1 116 414
             L 116 98
             A 22 22 0 0 1 138 76 Z"
          fill="url(#paper)"/>
    <path d="M 332 76 L 396 140 L 332 140 Z" fill="#1e3d96"/>
  </g>
  <g>
    <rect x="152" y="168" width="168" height="16" rx="8" fill="#ffffff"/>
    <rect x="152" y="208" width="208" height="16" rx="8" fill="#ffffff" fill-opacity="0.45"/>
    <rect x="152" y="248" width="208" height="16" rx="8" fill="#ffffff" fill-opacity="0.45"/>
    <rect x="152" y="288" width="208" height="16" rx="8" fill="#ffffff" fill-opacity="0.45"/>
    <rect x="152" y="328" width="208" height="16" rx="8" fill="#ffffff" fill-opacity="0.45"/>
    <rect x="152" y="368" width="120" height="16" rx="8" fill="#ffffff" fill-opacity="0.45"/>
  </g>
</svg>
